<?xml version="1.0" standalone="no"?>
<!DOCTYPE svg PUBLIC "-//W3C//DTD SVG 20010904//EN"
 "http://www.w3.org/TR/2001/REC-SVG-20010904/DTD/svg10.dtd">
<svg version="1.0" xmlns="http://www.w3.org/2000/svg"
 width="800.000000pt" height="600.000000pt" viewBox="0 0 800.000000 600.000000"
 preserveAspectRatio="xMidYMid meet">
<metadata>
Created by potrace 1.15, written by Peter Selinger 2001-2017
</metadata>
<g transform="translate(0.000000,600.000000) scale(0.100000,-0.100000)"
fill="#FFFFFF" stroke="none">
<path d="M1399 5331 c-20 -16 -22 -23 -14 -44 6 -15 558 -514 1270 -1148 693
-618 1260 -1126 1260 -1130 0 -4 -592 -535 -1315 -1179 -723 -644 -1319 -1182
-1325 -1196 -7 -20 -5 -29 13 -46 17 -18 26 -20 46 -13 13 6 619 540 1345
1188 l1321 1178 1321 -1178 c726 -648 1332 -1182 1345 -1188 20 -7 29 -5 46
13 18 17 20 26 13 46 -6 14 -602 552 -1325 1196 -723 644 -1315 1175 -1315
1179 0 4 563 508 1250 1120 688 612 1258 1122 1268 1133 9 11 17 29 17 39 0
26 -45 54 -69 43 -11 -5 -587 -515 -1281 -1134 -694 -619 -1265 -1125 -1270
-1125 -5 0 -412 360 -906 800 -494 440 -1066 950 -1271 1133 -205 182 -379
332 -387 332 -8 0 -24 -9 -37 -19z"/>
<path d="M3908 4976 c-131 -47 -222 -116 -290 -220 -214 -330 41 -757 452
-756 79 0 145 14 222 48 26 12 63 24 83 28 47 8 101 72 121 141 14 50 14 56
-3 91 -23 48 -50 52 -104 13 -87 -63 -215 -79 -304 -37 -60 27 -109 80 -144
156 -23 48 -26 68 -26 157 0 110 9 132 68 177 42 31 120 27 187 -10 44 -24 63
-44 106 -110 29 -45 60 -84 69 -88 9 -3 36 -6 60 -6 50 0 95 31 115 80 20 49
8 157 -25 218 -41 76 -57 87 -122 85 -40 -2 -70 4 -116 24 -52 23 -80 27 -172
30 -97 3 -118 1 -177 -21z"/>
<path d="M5725 3560 c-49 -5 -153 -6 -230 -3 -122 4 -144 2 -175 -14 -66 -34
-72 -88 -14 -124 19 -11 40 -31 47 -42 16 -29 22 -404 9 -518 -10 -80 -12 -85
-51 -122 -65 -60 -50 -116 39 -146 52 -18 224 -25 309 -13 87 13 125 36 129
79 3 25 -4 36 -34 61 -41 34 -53 74 -54 178 0 76 15 99 57 90 47 -11 63 -36
100 -163 43 -147 70 -194 130 -229 89 -53 279 -43 343 16 44 41 40 88 -9 112
-49 24 -51 27 -71 121 -28 128 -51 163 -137 206 -24 12 -43 28 -43 35 0 8 15
24 34 35 18 12 46 40 62 62 39 57 47 165 16 226 -42 82 -129 135 -248 153 -74
10 -75 10 -209 0z m84 -179 c25 -25 35 -79 27 -139 -7 -55 -29 -80 -80 -92
-57 -13 -64 1 -58 117 2 54 9 106 14 116 12 24 72 23 97 -2z"/>
<path d="M2235 3517 c-110 -24 -156 -63 -141 -122 5 -18 19 -31 51 -45 24 -10
49 -29 56 -42 8 -15 13 -100 16 -263 4 -218 3 -243 -14 -275 -24 -47 -63 -67
-100 -54 -27 9 -28 12 -28 79 0 82 -18 116 -76 146 -76 38 -169 18 -213 -47
-31 -45 -36 -129 -11 -187 44 -105 197 -177 379 -177 141 0 252 42 320 121 60
71 67 106 77 384 5 138 11 260 14 272 3 11 27 37 55 57 79 57 64 109 -42 141
-71 21 -266 28 -343 12z"/>
</g>
</svg>
